<svg width="613" height="294" viewBox="0 0 613 294" fill="none" xmlns="http://www.w3.org/2000/svg">
<path d="M3.87625 225.46C3.3991 224.17 3.70769 223.023 4.80205 222.018C5.11036 221.771 5.44037 221.582 5.79207 221.452C7.14024 220.953 8.28736 221.262 9.23345 222.378C9.48081 222.686 9.65872 222.987 9.76716 223.28C10.266 224.628 9.95741 225.775 8.84137 226.721C8.53305 226.969 8.23235 227.147 7.93927 227.255C6.5911 227.754 5.42551 227.486 4.4425 226.45C4.19514 226.141 4.00639 225.811 3.87625 225.46ZM23.8394 277.251L6.95458 231.618L11.5266 229.926L28.4115 275.559L23.8394 277.251Z" fill="black"/>
<path d="M36.1488 272.696L23.721 239.109C22.68 236.295 22.9317 233.103 24.4762 229.533C26.3594 225.437 29.4699 222.587 33.8075 220.982L35.4992 225.554C32.2753 226.747 30.016 229.016 28.7212 232.361C27.9586 234.442 27.881 236.303 28.4883 237.945L40.7208 271.004L36.1488 272.696ZM39.2799 224.155L37.5882 219.583C42.8636 217.631 47.8279 218.26 52.4809 221.47C54.8074 223.075 56.3285 224.844 57.0442 226.779L69.472 260.366L64.812 262.09L52.5795 229.031C51.8854 227.155 50.2242 225.637 47.5958 224.477C44.8069 223.243 42.0349 223.136 39.2799 224.155Z" fill="black"/>
<path d="M59.4532 217.89L57.794 213.406L63.4212 211.324L57.2724 194.706L61.8444 193.015L67.9932 209.632L73.6204 207.55L75.2796 212.034L69.6524 214.117L79.445 240.582C81.2452 245.447 84.0034 247.858 87.7197 247.816C89.2197 247.727 90.8489 247.358 92.6074 246.707L92.9591 246.577L95.6734 250.671L93.827 251.354C86.7127 253.92 81.3851 252.759 77.844 247.872C76.6224 246.191 75.5345 244.061 74.5801 241.482L65.0804 215.808L59.4532 217.89Z" fill="black"/>
<path d="M94.626 236.764L86.8505 215.75C85.8897 212.973 86.2033 209.858 87.7911 206.405C89.5572 202.353 92.5504 199.546 96.7708 197.985L98.3649 202.293C95.0238 203.529 92.8219 206.043 91.7592 209.835C91.2094 211.771 91.184 213.413 91.6828 214.762L94.253 221.708L118.168 212.858L115.598 205.912C114.514 202.982 112.199 201.139 108.655 200.385C106.404 199.885 104.311 199.993 102.377 200.708L100.815 196.488C104.743 195.035 108.791 195.17 112.96 196.892C116.45 198.4 118.756 200.579 119.877 203.429L124.367 215.563L95.8796 226.104L99.198 235.072C99.8704 236.889 101.678 238.353 104.621 239.463C107.382 240.441 109.935 240.496 112.28 239.628L113.874 243.936C108.715 245.845 103.861 245.242 99.3098 242.128C96.903 240.486 95.3417 238.698 94.626 236.764ZM117.83 242.472L116.139 237.9C119.949 236.491 122.342 233.772 123.317 229.746C123.593 228.511 123.686 227.41 123.595 226.444L128.457 226.345C128.75 231.101 127.281 235.144 124.047 238.473C122.306 240.25 120.233 241.583 117.83 242.472Z" fill="black"/>
<path d="M139.547 234.437L122.533 188.452L127.105 186.761L129.772 193.97C130.034 191.075 131.282 188.414 133.516 185.988C134.986 184.377 136.688 183.214 138.623 182.499L139.15 182.303L139.634 187.123C136.703 188.207 134.716 190.942 133.673 195.326C132.823 198.973 132.994 202.408 134.187 205.632L144.207 232.712L139.547 234.437Z" fill="black"/>
<path d="M161.177 226.433L148.749 192.846C147.708 190.033 147.96 186.841 149.504 183.271C151.387 179.175 154.498 176.325 158.835 174.72L160.527 179.292C157.303 180.485 155.044 182.753 153.749 186.098C152.987 188.18 152.909 190.041 153.516 191.682L165.749 224.742L161.177 226.433ZM164.308 177.893L162.616 173.321C167.892 171.369 172.856 171.998 177.509 175.207C179.835 176.812 181.357 178.582 182.072 180.516L194.5 214.103L189.84 215.827L177.607 182.768C176.913 180.892 175.252 179.374 172.624 178.214C169.835 176.981 167.063 176.873 164.308 177.893Z" fill="black"/>
<path d="M197.213 200.904C198.363 204.011 200.852 206.055 204.681 207.037C207.954 207.959 211.408 207.747 215.042 206.402L213.448 202.094C208.876 203.786 205.362 203.387 202.908 200.896C202.151 200.11 201.577 199.189 201.186 198.134L200.015 194.969C199.451 193.445 199.372 192.241 199.779 191.358C200.406 189.993 203.625 187.436 209.435 183.686C214.585 180.315 217.848 177.875 219.222 176.366L223.614 188.236C225.724 194.12 223.684 198.24 217.492 200.598L219.086 204.906C223.013 203.453 225.843 201.373 227.573 198.667C227.743 198.404 227.883 198.152 227.994 197.911C230.665 199.189 233.118 199.514 235.352 198.887L233.725 194.491C232.18 194.996 231.049 194.282 230.333 192.347L221.126 167.465C219.608 163.362 216.874 160.475 212.924 158.805C209.455 157.356 205.816 157.336 202.006 158.746L203.568 162.966C206.44 161.903 209.277 162.186 212.079 163.815C214.136 165.053 215.588 166.815 216.434 169.101L216.987 170.596C217.566 171.981 214.517 174.908 207.841 179.378C201.495 183.659 197.921 186.247 197.12 187.144C194.855 189.848 194.376 193.057 195.684 196.772L197.213 200.904ZM188.98 176.761L193.698 176.814C192.461 173.473 193.023 170.4 195.384 167.594C196.524 166.172 197.915 165.158 199.556 164.551L197.962 160.242C194.034 161.695 191.185 164.349 189.412 168.204C188.126 171.212 187.982 174.065 188.98 176.761Z" fill="black"/>
<path d="M225.366 156.5L223.707 152.016L229.334 149.934L223.185 133.316L227.757 131.624L233.906 148.242L239.533 146.16L241.192 150.644L235.565 152.726L245.358 179.191C247.158 184.056 249.916 186.468 253.632 186.425C255.132 186.337 256.762 185.967 258.52 185.317L258.872 185.186L261.586 189.28L259.74 189.963C252.625 192.529 247.298 191.368 243.757 186.481C242.535 184.8 241.447 182.671 240.493 180.092L230.993 154.418L225.366 156.5Z" fill="black"/>
<path d="M246.195 135.798C245.718 134.508 246.026 133.361 247.121 132.356C247.429 132.109 247.759 131.92 248.111 131.79C249.459 131.291 250.606 131.6 251.552 132.716C251.8 133.024 251.977 133.325 252.086 133.618C252.585 134.966 252.276 136.113 251.16 137.059C250.852 137.307 250.551 137.485 250.258 137.593C248.91 138.092 247.744 137.823 246.761 136.788C246.514 136.479 246.325 136.149 246.195 135.798ZM266.158 187.588L249.273 141.956L253.845 140.264L270.73 185.897L266.158 187.588Z" fill="black"/>
<path d="M273.815 170.461L266.072 149.535C265.053 146.78 265.297 143.657 266.805 140.167C268.629 136.093 271.71 133.254 276.048 131.649L277.675 136.045C273.747 137.498 271.424 140.224 270.704 144.222C270.426 145.991 270.547 147.579 271.067 148.986L277.964 167.626C278.832 169.971 280.77 171.786 283.778 173.072C286.443 174.152 289.007 174.236 291.469 173.325L293.095 177.721C287.644 179.738 282.669 179.08 278.17 175.747C275.983 174.157 274.531 172.395 273.815 170.461ZM296.788 176.355L295.162 171.959C298.796 170.614 300.933 167.924 301.572 163.889C301.909 162.098 301.828 160.529 301.329 159.18L294.367 140.365C293.413 137.786 291.453 135.912 288.488 134.743C286.086 133.833 283.712 133.811 281.367 134.679L279.741 130.283C285.016 128.331 289.852 128.974 294.249 132.211C296.378 133.823 297.8 135.596 298.516 137.53L306.259 158.456C307.3 161.269 307.096 164.41 305.647 167.879C303.94 171.909 300.987 174.735 296.788 176.355Z" fill="black"/>
<path d="M317.594 168.556L305.166 134.969C304.125 132.156 304.377 128.964 305.921 125.394C307.804 121.298 310.915 118.448 315.252 116.843L316.944 121.415C313.72 122.608 311.461 124.876 310.166 128.221C309.404 130.303 309.326 132.164 309.933 133.805L322.166 166.865L317.594 168.556ZM320.725 120.016L319.033 115.444C324.309 113.492 329.273 114.121 333.926 117.33C336.252 118.935 337.773 120.705 338.489 122.639L350.917 156.226L346.257 157.951L334.024 124.891C333.33 123.015 331.669 121.498 329.041 120.338C326.252 119.104 323.48 118.996 320.725 120.016Z" fill="black"/>
<path d="M353.63 143.027C354.78 146.134 357.269 148.178 361.098 149.16C364.371 150.082 367.824 149.87 371.459 148.526L369.864 144.217C365.292 145.909 361.779 145.51 359.325 143.019C358.568 142.233 357.994 141.312 357.603 140.257L356.432 137.092C355.868 135.568 355.789 134.364 356.196 133.481C356.823 132.116 360.042 129.559 365.852 125.809C371.002 122.438 374.264 119.998 375.639 118.49L380.031 130.359C382.141 136.243 380.101 140.363 373.909 142.721L375.503 147.029C379.43 145.576 382.259 143.496 383.99 140.79C384.16 140.527 384.3 140.275 384.411 140.034C387.082 141.312 389.535 141.637 391.769 141.01L390.142 136.614C388.597 137.119 387.466 136.405 386.75 134.471L377.543 109.588C376.025 105.485 373.291 102.598 369.341 100.928C365.872 99.4787 362.233 99.4591 358.423 100.869L359.985 105.089C362.857 104.026 365.694 104.31 368.496 105.938C370.553 107.176 372.005 108.938 372.851 111.224L373.404 112.719C373.983 114.104 370.934 117.032 364.258 121.501C357.912 125.782 354.338 128.371 353.537 129.267C351.272 131.971 350.793 135.18 352.101 138.895L353.63 143.027ZM345.396 118.884L350.114 118.937C348.878 115.596 349.44 112.523 351.801 109.717C352.941 108.295 354.331 107.281 355.973 106.674L354.379 102.365C350.451 103.819 347.601 106.472 345.829 110.327C344.543 113.335 344.399 116.188 345.396 118.884Z" fill="black"/>
<path d="M398.836 138.496L376.062 76.9487L380.81 75.1919L403.583 136.739L398.836 138.496Z" fill="black"/>
<path d="M391.797 81.9224C391.32 80.6328 391.629 79.4857 392.723 78.481C393.031 78.2336 393.361 78.0449 393.713 77.9147C395.061 77.4159 396.208 77.7245 397.154 78.8405C397.402 79.1488 397.58 79.4495 397.688 79.7426C398.187 81.0908 397.878 82.2379 396.762 83.184C396.454 83.4314 396.153 83.6093 395.86 83.7177C394.512 84.2166 393.346 83.9481 392.363 82.9124C392.116 82.6041 391.927 82.2741 391.797 81.9224ZM411.76 133.713L394.876 88.0806L399.448 86.3888L416.332 132.021L411.76 133.713Z" fill="black"/>
<path d="M423.366 129.419L421.86 125.078L429.409 80.1009L408.043 88.0065L406.416 83.6103L432.794 73.8503L434.225 77.7189L426.751 123.168L448.117 115.262L449.744 119.659L423.366 129.419Z" fill="black"/>
<path d="M451.753 106.72C452.903 109.826 455.392 111.871 459.221 112.853C462.494 113.775 465.948 113.563 469.582 112.218L467.988 107.91C463.416 109.602 459.902 109.202 457.448 106.712C456.691 105.926 456.117 105.005 455.727 103.95L454.555 100.785C453.991 99.2607 453.913 98.057 454.319 97.1737C454.947 95.8085 458.165 93.2513 463.975 89.5021C469.125 86.1304 472.388 83.6905 473.762 82.1823L478.154 94.052C480.264 99.9353 478.224 104.056 472.032 106.413L473.626 110.722C477.554 109.269 480.383 107.189 482.114 104.482C482.283 104.22 482.423 103.968 482.534 103.727C485.206 105.004 487.658 105.33 489.892 104.703L488.266 100.307C486.72 100.812 485.589 100.098 484.873 98.1633L475.667 73.2807C474.148 69.1776 471.414 66.2908 467.464 64.6203C463.996 63.1714 460.356 63.1518 456.546 64.5616L458.108 68.7819C460.98 67.7192 463.817 68.0022 466.619 69.6311C468.676 70.8691 470.128 72.6311 470.974 74.9171L471.527 76.4118C472.106 77.7969 469.058 80.7242 462.381 85.1938C456.035 89.4747 452.461 92.0632 451.66 92.9595C449.395 95.6635 448.916 98.8728 450.224 102.587L451.753 106.72ZM443.52 82.5766L448.238 82.6302C447.001 79.2891 447.564 76.2155 449.924 73.4095C451.064 71.988 452.455 70.9737 454.096 70.3664L452.502 66.0581C448.575 67.5113 445.725 70.1652 443.952 74.0198C442.666 77.028 442.522 79.8803 443.52 82.5766Z" fill="black"/>
<path d="M479.906 62.3156L478.247 57.8315L483.874 55.7493L477.725 39.1317L482.297 37.44L488.446 54.0576L494.073 51.9755L495.732 56.4596L490.105 58.5417L499.898 85.0069C501.698 89.872 504.456 92.2834 508.172 92.2412C509.672 92.1526 511.302 91.783 513.06 91.1324L513.412 91.0022L516.126 95.096L514.28 95.7792C507.166 98.3449 501.838 97.1841 498.297 92.2967C497.075 90.6162 495.987 88.4864 495.033 85.9073L485.533 60.2335L479.906 62.3156Z" fill="black"/>
<path d="M500.735 41.6135C500.258 40.3239 500.567 39.1768 501.661 38.1721C501.969 37.9247 502.299 37.736 502.651 37.6058C503.999 37.107 505.146 37.4156 506.092 38.5316C506.34 38.8399 506.518 39.1406 506.626 39.4337C507.125 40.7819 506.816 41.929 505.7 42.8751C505.392 43.1225 505.091 43.3004 504.798 43.4088C503.45 43.9077 502.284 43.6392 501.301 42.6035C501.054 42.2952 500.865 41.9652 500.735 41.6135ZM520.698 93.4042L503.813 47.7716L508.385 46.0799L525.27 91.7125L520.698 93.4042Z" fill="black"/>
<path d="M528.355 76.2764L520.612 55.3505C519.593 52.5955 519.837 49.473 521.345 45.983C523.169 41.9091 526.25 39.0697 530.588 37.4647L532.215 41.8609C528.287 43.3141 525.964 46.0398 525.244 50.038C524.966 51.8071 525.087 53.395 525.607 54.8018L532.504 73.4417C533.372 75.7863 535.31 77.6016 538.318 78.8876C540.983 79.9673 543.547 80.0517 546.009 79.1407L547.636 83.5369C542.184 85.554 537.209 84.8958 532.71 81.5624C530.523 79.9727 529.071 78.2107 528.355 76.2764ZM551.328 82.1705L549.702 77.7743C553.336 76.4296 555.473 73.7397 556.112 69.7045C556.449 67.9138 556.368 66.3443 555.869 64.9962L548.907 46.1804C547.953 43.6013 545.993 41.7274 543.029 40.5586C540.626 39.6483 538.252 39.627 535.908 40.4945L534.281 36.0983C539.556 34.1463 544.392 34.7893 548.789 38.0272C550.918 39.6385 552.341 41.4113 553.056 43.3457L560.799 64.2716C561.84 67.0852 561.636 70.2261 560.187 73.6945C558.48 77.725 555.527 80.5503 551.328 82.1705Z" fill="black"/>
<path d="M572.134 74.3722L559.706 40.7852C558.665 37.9716 558.917 34.7797 560.461 31.2093C562.344 27.1138 565.455 24.2635 569.792 22.6585L571.484 27.2306C568.26 28.4235 566.001 30.6922 564.706 34.0369C563.944 36.1184 563.866 37.9798 564.473 39.621L576.706 72.6804L572.134 74.3722ZM575.265 25.8316L573.573 21.2596C578.849 19.3076 583.813 19.9365 588.466 23.1462C590.792 24.7511 592.314 26.5207 593.029 28.455L605.457 62.042L600.797 63.7663L588.564 30.7068C587.87 28.8311 586.209 27.3133 583.581 26.1533C580.792 24.9195 578.02 24.8123 575.265 25.8316Z" fill="black"/>
<line x1="23.7784" y1="290.72" x2="610.9" y2="72.0471" stroke="#FBFF27" stroke-width="7"/>
</svg>
